Coordinates
version=1
nRows=14
nColumns=40
inDegrees=yes

Units are S.I. units (second, meters, Newtons, ...)
Angles are in degrees.

endheader
time	pelvis_tilt	pelvis_list	pelvis_rotation	pelvis_tx	pelvis_ty	pelvis_tz	hip_flexion_r	hip_adduction_r	hip_rotation_r	knee_angle_r	knee_angle_r_beta	ankle_angle_r	subtalar_angle_r	mtp_angle_r	hip_flexion_l	hip_adduction_l	hip_rotation_l	knee_angle_l	knee_angle_l_beta	ankle_angle_l	subtalar_angle_l	mtp_angle_l	lumbar_extension	lumbar_bending	lumbar_rotation	arm_flex_r	arm_add_r	arm_rot_r	elbow_flex_r	pro_sup_r	wrist_flex_r	wrist_dev_r	arm_flex_l	arm_add_l	arm_rot_l	elbow_flex_l	pro_sup_l	wrist_flex_l	wrist_dev_l
     14.95750000	     -3.66531156	     -3.72539793	      3.51583283	      0.88673579	      0.91632951	      0.44970785	     -3.62170315	     -0.61252565	    -14.59866285	     21.99335508	     21.99335508	     18.91342989	      0.50739387	     -5.57252512	     28.36034261	     -4.78539770	     -2.31214926	     28.64244388	     28.64244388	      7.10515815	    -17.63400007	      8.02859216	     -6.90971522	      5.13561567	      4.43608536	     35.61311608	    -17.56118990	    -11.96987705	     75.77898452	     44.95886908	      0.00000000	      0.00000000	     -7.44694189	     -7.49116192	      3.23558858	     23.14676259	     44.89773538	      0.00000000	      0.00000000
     14.97000000	     -3.67348307	     -3.58650794	      3.36047954	      0.88754352	      0.91774738	      0.44636602	     -2.95813520	     -1.36518856	    -14.42351839	     23.97125755	     23.97125755	     16.14444100	     -1.07982752	    -11.78292974	     27.69651509	     -4.47236475	     -2.44657789	     28.67001704	     28.67001704	      8.35228698	    -17.48793796	      9.76864646	     -6.83538854	      5.12556480	      4.30255545	     34.08920785	    -17.16829515	    -12.32863893	     74.52761399	     45.04902177	      0.00000000	      0.00000000	     -6.70917783	     -7.43380716	      2.89271901	     24.01226313	     45.05963965	      0.00000000	      0.00000000
     14.98250000	     -3.67054873	     -3.43432845	      3.15615432	      0.88831002	      0.91924074	      0.44307812	     -1.88559609	     -2.26068657	    -14.20152891	     26.90797978	     26.90797978	     15.08706030	     -1.88598402	    -12.67228761	     26.81472899	     -4.20185103	     -2.81223794	     28.28656654	     28.28656654	      8.78080632	    -17.38386810	      9.52790948	     -6.78348872	      5.11481012	      4.31864756	     32.31585057	    -17.09154777	    -12.20232563	     73.34298797	     45.08187127	      0.00000000	      0.00000000	     -5.76091954	     -7.38140269	      2.79904666	     24.71107357	     45.10065965	      0.00000000	      0.00000000
     14.99500000	     -3.68402738	     -3.35754967	      2.96910570	      0.88895191	      0.92068124	      0.43994295	     -0.68773007	     -2.99258403	    -13.72214950	     29.81050657	     29.81050657	     12.75405115	     -3.88120847	    -16.01540827	     25.91116230	     -4.01027765	     -3.16210064	     27.78048105	     27.78048105	      8.99619236	    -17.25277298	      8.92649289	     -6.69866167	      5.16323773	      4.24270227	     30.82568193	    -16.76851994	    -12.27907416	     71.37226434	     45.16196828	      0.00000000	      0.00000000	     -5.13144267	     -7.38509757	      2.41116586	     26.32677028	     45.20388386	      0.00000000	      0.00000000
     15.00750000	     -3.73597639	     -3.23461810	      2.80276164	      0.88935457	      0.92188642	      0.43683089	      0.78051282	     -3.82530339	    -13.28557658	     33.07050807	     33.07050807	     10.38213146	     -5.80827296	    -18.76529801	     25.09571906	     -3.76840928	     -3.53931599	     27.32906720	     27.32906720	      9.19745332	    -17.09743420	      8.21028123	     -6.64968917	      5.17460629	      3.88222802	     29.24626984	    -16.37982855	    -12.03882715	     69.42693344	     45.23404776	      0.00000000	      0.00000000	     -4.50703919	     -7.51473495	      1.92528388	     27.89845841	     45.33164015	      0.00000000	      0.00000000
     15.02000000	     -3.79232630	     -3.02077584	      2.58237366	      0.88960967	      0.92294411	      0.43382455	      2.55029170	     -4.81971215	    -12.83558703	     36.86896341	     36.86896341	      8.65989643	     -7.20100842	    -18.96398907	     24.24066171	     -3.45347549	     -4.02365062	     26.81653984	     26.81653984	      9.64630186	    -16.80221265	      7.97291099	     -6.64013118	      5.07047416	      3.80662377	     27.36491022	    -16.21291360	    -11.90858888	     68.13391959	     45.26669838	      0.00000000	      0.00000000	     -3.38815459	     -7.61442943	      1.80164148	     28.74538906	     45.37143624	      0.00000000	      0.00000000
     15.03250000	     -3.82768198	     -2.88226864	      2.44057767	      0.88955806	      0.92390315	      0.43097990	      4.40733871	     -5.61299354	    -12.23202764	     40.66356886	     40.66356886	      6.62498507	     -8.92789490	    -18.88186841	     23.46511086	     -3.20282229	     -4.38821820	     26.39250454	     26.39250454	      9.92511791	    -16.52028886	      7.71012252	     -6.66169116	      5.07305160	      3.80602909	     25.44299180	    -16.03135942	    -11.82827352	     66.58739396	     45.30914454	      0.00000000	      0.00000000	     -2.24852321	     -7.74941168	      1.64711742	     29.82476029	     45.41411771	      0.00000000	      0.00000000
     15.04500000	     -3.90306920	     -2.91334935	      2.25857965	      0.88929187	      0.92464230	      0.42849190	      6.43623849	     -5.97059268	    -11.22091703	     44.38781950	     44.38781950	      4.35638443	    -11.48237385	    -18.20583203	     22.76060526	     -3.17674746	     -4.78332137	     25.95330351	     25.95330351	      9.87546239	    -16.28336320	      6.41938554	     -6.64470361	      5.23386334	      3.43656406	     24.38413936	    -15.36309097	    -12.14352774	     62.90415947	     45.44750478	      0.00000000	      0.00000000	     -2.00953749	     -8.11971049	      1.18526633	     33.11295643	     45.50058680	      0.00000000	      0.00000000
     15.05750000	     -3.88177348	     -2.68709835	      2.11807694	      0.88885066	      0.92530949	      0.42585547	      8.41281715	     -6.77980360	    -10.65494127	     48.12364955	     48.12364955	      2.24944772	    -12.98533661	    -17.51770815	     21.97422499	     -2.83539842	     -5.13021217	     25.58100267	     25.58100267	     10.26226204	    -16.00433959	      6.18777343	     -6.82500533	      5.11194205	      3.28216332	     22.43978028	    -15.05891139	    -11.93802272	     61.57817228	     45.47625904	      0.00000000	      0.00000000	     -0.66403429	     -8.38245554	      1.04582202	     34.01760409	     45.54190830	      0.00000000	      0.00000000
     15.07000000	     -4.00362653	     -2.81473014	      1.89155137	      0.88816335	      0.92580322	      0.42378528	     10.66871859	     -6.77896731	     -9.52704151	     51.68021053	     51.68021053	      0.54017591	    -15.10756741	    -14.68346727	     21.42873940	     -2.91630777	     -5.38134092	     25.29746168	     25.29746168	     10.51051363	    -15.74778600	      5.60411451	     -6.80150904	      5.39057799	      3.85685527	     20.49991850	    -15.32604373	    -12.03456432	     58.59134154	     45.57533300	      0.00000000	      0.00000000	      0.54959603	     -8.51762510	      0.82821416	     36.11575880	     45.59783541	      0.00000000	      0.00000000
     15.08250000	     -3.98416916	     -2.71048027	      1.67099191	      0.88738315	      0.92626429	      0.42182932	     12.84091376	     -7.13475243	     -8.75247337	     55.25941225	     55.25941225	      0.01384884	    -15.82008457	     -9.95415345	     20.72138352	     -2.78824134	     -5.86431385	     25.00056376	     25.00056376	     10.69923979	    -15.50512618	      4.76187004	     -6.96213440	      5.34814748	      3.64336641	     19.28204611	    -14.80535857	    -12.17312906	     55.10701685	     45.69404194	      0.00000000	      0.00000000	      1.37720299	     -9.02231144	      0.72016520	     38.55475051	     45.64251829	      0.00000000	      0.00000000
     15.09500000	     -4.00941135	     -2.60916597	      1.47584828	      0.88648201	      0.92668920	      0.41992638	     15.08436470	     -7.43834708	     -8.04677335	     58.60044854	     58.60044854	      0.27768573	    -15.90487149	     -4.01964768	     20.00032390	     -2.61594127	     -6.20252375	     24.55403301	     24.55403301	     10.81392241	    -15.32732036	      3.94446980	     -7.07412489	      5.33605144	      2.97000122	     18.42868473	    -13.99759047	    -12.05261856	     51.57744407	     45.79703584	      0.00000000	      0.00000000	      2.00368226	     -9.64940249	      0.68285438	     40.76596813	     45.69529766	      0.00000000	      0.00000000
     15.10750000	     -4.02297832	     -2.54417906	      1.26198899	      0.88549381	      0.92718989	      0.41824347	     17.07476521	     -7.58843457	     -7.42550666	     61.11238749	     61.11238749	     -0.85163452	    -16.97315036	     -3.00730583	     19.31485807	     -2.48824381	     -6.49673293	     24.19307237	     24.19307237	     11.13955732	    -15.12628606	      3.76958175	     -7.25380499	      5.37751273	      3.22888737	     16.34362379	    -13.92343396	    -11.88632437	     49.77398247	     45.84127362	      0.00000000	      0.00000000	      3.58425302	     -9.89186986	      0.46790461	     41.94697064	     45.74998793	      0.00000000	      0.00000000
     15.12000000	     -3.97468021	     -2.58319025	      1.03792482	      0.88455838	      0.92779210	      0.41687976	     19.03737701	     -7.48007888	     -6.80284775	     63.43542505	     63.43542505	     -0.34242454	    -17.20405277	      1.57514540	     18.56401047	     -2.51050935	     -6.82711565	     23.83545885	     23.83545885	     11.36614734	    -14.84451425	      3.08515758	     -7.44848245	      5.47251569	      3.01151349	     15.40367690	    -13.44127586	    -11.85959964	     45.56111300	     45.97504887	      0.00000000	      0.00000000	      4.62447995	    -10.44524542	      0.50074915	     43.95875301	     45.79736875	      0.00000000	      0.00000000
